<svg xmlns="http://www.w3.org/2000/svg" xmlns:xlink="http://www.w3.org/1999/xlink" width="251" height="81" viewBox="0 0 251 81">
  <defs>
    <clipPath id="clip-path">
      <rect id="Rectangle_4" data-name="Rectangle 4" width="251" height="81" transform="translate(0.835 0.445)" fill="#fff"/>
    </clipPath>
  </defs>
  <g id="Group_710" data-name="Group 710" transform="translate(-0.835 -0.445)" clip-path="url(#clip-path)">
    <path id="Path_1279" data-name="Path 1279" d="M108.5,54.832H99.234c0,.346-.043.616-.043.887V68.066c0,1.314.715,1.746,1.865,1.081a4.683,4.683,0,0,0,2.574-3.682,3.256,3.256,0,0,1,.135-.622c1.084,1.081,2.168,2.092,3.182,3.179a1.552,1.552,0,0,1,.146,1.146,4.157,4.157,0,0,1-6.834,2.7,25.161,25.161,0,0,1-3.9-4.19,4.475,4.475,0,0,1-.748-2.5c-.108-3.114-.087-6.239-.108-9.358v-.941H87.149V59.34A24.654,24.654,0,0,0,84.64,58.8a7.43,7.43,0,0,0-2.271.076,1.11,1.11,0,0,0-.808,1.665,5.413,5.413,0,0,0,2.888,2.925c1.387.654,2.824,1.195,4.2,1.871a13.309,13.309,0,0,1,2.384,1.5,1.933,1.933,0,0,1,.542,2.292,5.455,5.455,0,0,1-3.013,3.2,11.828,11.828,0,0,1-6.454.924A12.7,12.7,0,0,1,75.15,70.7a4.8,4.8,0,0,1-2.032-4.812,2.547,2.547,0,0,1,2.894-2.427,6.914,6.914,0,0,1,4.406,1.622,12.2,12.2,0,0,0-1.664.189,2.185,2.185,0,0,0-1.024,3.887,6.212,6.212,0,0,0,2.412,1.222,9.234,9.234,0,0,0,5.728-.319,4.122,4.122,0,0,0,1.192-.67,1.29,1.29,0,0,0,.141-2.065,13.011,13.011,0,0,0-2.325-1.579c-1.441-.811-2.981-1.46-4.373-2.352A7.068,7.068,0,0,1,78.641,61.4a3.038,3.038,0,0,1-.125-3.6,3.594,3.594,0,0,1,3.561-1.5,12.393,12.393,0,0,1,1.626.362V54.913H67.412c0,.924-.033,1.86.027,2.79,0,.216.309.438.509.622a4.234,4.234,0,0,1-.721,7.185,15.041,15.041,0,0,1-6.975,2.368c-1.447.119-2.07-.276-2.347-1.406.932-.287,1.87-.584,2.807-.86a12.293,12.293,0,0,0,4.541-2.325,1.661,1.661,0,0,0-.7-3.092c-3.875-.778-7.191,1.8-7.647,4.7a4.319,4.319,0,0,0,1.257,3.92c3.013,3.011,7.045,2.7,9.625-.665.043-.065.1-.124.173-.222l2.33,2.114c-.179.189-.309.368-.471.508-3.4,3.038-9.337,3.536-13.093.189-3.295-2.941-3.75-8.11-.905-11.207a9.591,9.591,0,0,1,8.183-2.7V54.907H49.5V72.791c-1.3-1.238-2.444-2.314-3.55-3.428a1.268,1.268,0,0,1-.152-.789V54.9H30.712v6.942c1.084-.957,2.124-1.838,3.149-2.7.938-.795,1.837-1.622,2.84-2.346,1.415-1,1.951-.946,3.078.351A32.972,32.972,0,0,1,42.066,60.3a.739.739,0,0,1-.081.7c-.737.849-1.517,1.66-2.33,2.53-.433-.541-.813-1.081-1.246-1.573-1-1.141-1.534-1.281-2.85-.6-1.479.762-2.9,1.622-4.368,2.406a.957.957,0,0,0-.542.984v8.1c-1.3-1.265-2.46-2.368-3.577-3.5-.141-.141-.108-.481-.108-.73V54.913H9.36v5.3c.379-.308.694-.578,1.024-.833a13.9,13.9,0,0,1,5.723-2.99,6.327,6.327,0,0,1,7.49,5.947c.135,4.525-2.168,7.569-5.853,9.888a7.811,7.811,0,0,1-7.625.362l-.791-.341V81.4C8.011,80.128,6.857,79.03,5.74,77.895c-.152-.157-.125-.541-.125-.795V54.842c-.715,0-1.377-.043-2.027,0a1.084,1.084,0,0,1-1.138-.66C1.958,53.3,1.394,52.464.857,51.609v-.3h94.61a21.578,21.578,0,0,0-.612-6.363,12.5,12.5,0,0,0-.661-1.281,1.505,1.505,0,0,1-.076-.86A6.992,6.992,0,0,1,98.1,46.117a11.41,11.41,0,0,1,1.084,5.19h6.79a.865.865,0,0,1,.629.276C107.254,52.647,107.834,53.691,108.5,54.832ZM19.57,65.774a6.225,6.225,0,0,0,.347-3.53,3.215,3.215,0,0,0-3.864-2.471c-1.9.486-3.409,1.7-5.045,2.7-1.284.789-2.168,1.676-1.707,3.055,0,2.536,0,2.536,1.035,3.784a4.271,4.271,0,0,0,6.086.811A8.986,8.986,0,0,0,19.57,65.774Z" fill="#157e42"/>
    <path id="Path_1280" data-name="Path 1280" d="M50.021,45.4,47.669,47.83l-.249-.205-2.276-2.06,2.661-2.6C48.482,43.716,49.268,44.592,50.021,45.4Z" fill="#157e42"/>
    <path id="Path_1281" data-name="Path 1281" d="M19.917,62.233a6.225,6.225,0,0,1-.347,3.53,8.986,8.986,0,0,1-3.149,4.325,4.273,4.273,0,0,1-6.086-.811C9.3,68.034,9.3,68.034,9.3,65.493c-.471-1.379.423-2.265,1.707-3.054,1.626-.995,3.149-2.206,5.045-2.7a3.212,3.212,0,0,1,3.864,2.5Z" fill="#fff"/>
    <path id="Path_1282" data-name="Path 1282" d="M238.32,63.8a10.888,10.888,0,0,0-1.686.162,1.988,1.988,0,0,0-1.035,3.363,4.975,4.975,0,0,0,2.108,1.3,9.055,9.055,0,0,0,5.658-.222,3.423,3.423,0,0,0,.542-.249c1.366-.752,1.479-1.833.217-2.757a13.228,13.228,0,0,0-2.336-1.287,11.308,11.308,0,0,1-4.579-2.984,4.832,4.832,0,0,1-1.084-2.163c-.347-2.3,1.767-3.871,4.265-3.276.293.07.585.162.927.259V54.291H226.05v2.546c0,.173.266.351.429.5,2.287,2.125,2.167,4.747-.374,6.531a12.444,12.444,0,0,1-7.333,2.346c-.953,0-1.3-.3-1.566-1.265.764-.238,1.528-.5,2.309-.714a12.137,12.137,0,0,0,4.444-2.163,1.749,1.749,0,0,0,.872-1.676,1.625,1.625,0,0,0-1.469-1.287,5.982,5.982,0,0,0-7.045,4.125,3.879,3.879,0,0,0,.846,3.59c2.292,2.514,6.357,3.6,9.381-.492l2.167,1.968a9.417,9.417,0,0,1-6.5,2.768,8.419,8.419,0,0,1-7.972-4.612,7.155,7.155,0,0,1,5.712-10.342c.927-.135,1.875-.124,2.878-.184V54.312H208.118v4.082H204.8a6.079,6.079,0,0,0-4.032,1.449,5.168,5.168,0,0,0-2.168,5.168c.418,2.152,2.108,3.19,4.032,3.785a4.885,4.885,0,0,0,5.425-1.7c.173-.216.341-.438.542-.714.379.335.742.643,1.084.962s.7.66,1.084,1.022a8.9,8.9,0,0,1-4.688,2.568c-3.479.687-6.547-.076-8.85-2.9-3.018-3.7-2.167-10.667,4.688-11.613.975-.135,1.973-.1,3.013-.151V54.34H191.692V71.023c-.406-.368-.666-.578-.9-.811-.851-.849-2.011-1.568-2.45-2.59s-.125-2.314-.125-3.487v-9.8h-4.454c-.808,2.622-1.55,5.266-2.434,7.866-.623,1.833-1.387,3.617-2.167,5.406a6.585,6.585,0,0,1-2.385,2.849c-1.533,1.027-2.867.746-3.56-.946-1.659-4.055-3.214-8.153-4.8-12.24-.325-.833-.569-1.692-.9-2.519a.8.8,0,0,0-.22-.283.81.81,0,0,0-.322-.16h-12.2V60.8c1.084-.919,2.054-1.784,3.062-2.627.9-.757,1.772-1.557,2.737-2.217,1.084-.735,1.626-.665,2.477.313a36.561,36.561,0,0,1,2.265,3.082.61.61,0,0,1,0,.578c-.716.827-1.474,1.622-2.211,2.411-.591-.67-1.111-1.292-1.669-1.876a1.407,1.407,0,0,0-1.881-.249c-1.431.795-2.861,1.584-4.3,2.352a.947.947,0,0,0-.542.978v7.509a28.454,28.454,0,0,0-2.167-2.092,3.259,3.259,0,0,1-1.258-2.974c.087-3.579.033-7.163.033-10.748v-.881h-6.059c0,.806-.032,1.622,0,2.422,0,.227.287.46.482.643a4.247,4.247,0,0,1,1.577,2.957,3.869,3.869,0,0,1-1.783,3.39,12.668,12.668,0,0,1-7.511,2.5c-1,0-1.371-.324-1.555-1.281.91-.281,1.826-.578,2.753-.849a11.217,11.217,0,0,0,3.994-2.049,1.683,1.683,0,0,0,.829-1.7,1.656,1.656,0,0,0-1.431-1.227c-3.49-.7-6.535,1.546-7.045,4.163a3.857,3.857,0,0,0,.84,3.514c2.482,2.741,6.5,3.341,9.121-.13l.276-.341,2.168,1.968a8.392,8.392,0,0,1-4.276,2.444c-3.6.838-6.812.178-9.213-2.784a7.174,7.174,0,0,1,4.7-11.84c.927-.135,1.881-.124,2.894-.184V54.356H126.135v4.093c-.916-.2-1.745-.427-2.585-.541a5.053,5.053,0,0,0-1.664.054c-.981.211-1.279.865-.872,1.79a5.217,5.217,0,0,0,2.709,2.6c1.225.578,2.493,1.081,3.713,1.622a12.092,12.092,0,0,1,2.043,1.2,1.987,1.987,0,0,1,.715,2.638c-.645,1.757-2.108,2.552-3.729,3.157-.2.076-.411.135-.78.254l2.011,1.146-1.946,2.163a9.925,9.925,0,0,1-3.251-2.509,1.793,1.793,0,0,0-.981-.541,13.445,13.445,0,0,1-6.281-2.26,4.8,4.8,0,0,1-2.168-3.39c-.255-2.7,1.588-4.287,4.265-3.822a4.848,4.848,0,0,1,3.55,2.644c.628,1.141,1.262,2.276,1.864,3.428a1.158,1.158,0,0,0,.706.7,1.163,1.163,0,0,0,.99-.1,9.309,9.309,0,0,0,1.442-.692,1.3,1.3,0,0,0,.178-2.254,9.907,9.907,0,0,0-2.01-1.335c-1.127-.6-2.314-1.081-3.425-1.714a6.233,6.233,0,0,1-2.553-2.59,2.932,2.932,0,0,1,2.445-4.46,16.145,16.145,0,0,1,2.454.205V54.253h-9.846a1.084,1.084,0,0,1-1.122-.67c-.445-.887-.959-1.735-1.507-2.7h61.536a1.178,1.178,0,0,1,1.231.746c.428.865.932,1.687,1.463,2.633h-3.61c.542,1.535,1.052,2.973,1.577,4.4.868,2.373,1.724,4.747,2.629,7.1.5,1.3,1.084,1.4,2.059.384a5.576,5.576,0,0,0,.916-1.206,70.326,70.326,0,0,0,3.956-10.64h-3.2a.8.8,0,0,1-.5-.1.791.791,0,0,1-.339-.379c-.515-.962-1.057-1.86-1.653-2.941h72.618a1.084,1.084,0,0,1,1.133.649c.439.887.965,1.735,1.512,2.7h-7.343v4.217q-1.26-.334-2.547-.541a5.54,5.54,0,0,0-1.886.119,1.023,1.023,0,0,0-.754.557,1.02,1.02,0,0,0,.017.935,4.927,4.927,0,0,0,2.71,2.773c1.241.595,2.53,1.081,3.793,1.681a11.077,11.077,0,0,1,1.924,1.081,2.083,2.083,0,0,1,.721,2.952,5.183,5.183,0,0,1-3.447,2.833,12.92,12.92,0,0,1-11.229-1.568,4.526,4.526,0,0,1-2.238-4.909,2.318,2.318,0,0,1,2.655-2.1A6.377,6.377,0,0,1,238.32,63.8ZM120.38,69.045c-.916-1.687-1.539-3.39-3.333-4.158a1.694,1.694,0,0,0-.087,2.162,4.277,4.277,0,0,0,3.42,2Z" fill="#fd642a"/>
    <path id="Path_1283" data-name="Path 1283" d="M190.11,43.2l2.195,2.287L190,47.738l-2.265-2.162Z" fill="#fd642a"/>
    <path id="Path_1284" data-name="Path 1284" d="M143.959,14.084a.541.541,0,0,0-.035-.222.542.542,0,0,0-.312-.311.541.541,0,0,0-.222-.035h-.369a.533.533,0,0,0,.208-.2.623.623,0,0,0,.039-.5.543.543,0,0,0-.312-.311.541.541,0,0,0-.222-.035h-.406a.569.569,0,0,0,.225-.856.538.538,0,0,0-.3-.2,1.811,1.811,0,0,0-1.035-2.406h-.992a1.835,1.835,0,0,0-1,2.406.543.543,0,0,0-.3.2.558.558,0,0,0,.224.858h-.407a.561.561,0,0,0-.314,1.049h-.347a.542.542,0,0,0-.214.044.549.549,0,0,0-.179.124.563.563,0,0,0,.1.859,21.015,21.015,0,0,0-3.316,9.147h12.572a21.015,21.015,0,0,0-3.316-9.147.546.546,0,0,0,.175-.2A.554.554,0,0,0,143.959,14.084Z" fill="#fd642a"/>
    <path id="Path_1285" data-name="Path 1285" d="M169.2,49.663a63.417,63.417,0,0,0-6.623-22.636,1.389,1.389,0,0,0-.309-2.568v-.541c.271-.07.466-.216.466-.389s-.205-.324-.493-.389l-.1-3.152a.217.217,0,0,0-.434,0l-.1,3.152c-.288.065-.488.216-.488.389s.19.319.466.389v.541a1.388,1.388,0,0,0-.314,2.568,64.232,64.232,0,0,0-6.33,19.814V41.808h-.434c-1.625-3.244-4.628-16.095-7.587-17.49H134.546c-2.948,1.395-5.962,14.235-7.587,17.49h-.428V46.83a64.347,64.347,0,0,0-6.271-19.8,1.388,1.388,0,0,0-.314-2.568v-.541c.277-.07.466-.216.466-.389s-.2-.324-.488-.389l-.1-3.152a.224.224,0,0,0-.065-.146.213.213,0,0,0-.23-.05.214.214,0,0,0-.071.045.2.2,0,0,0-.049.069.214.214,0,0,0-.019.082l-.1,3.152c-.287.065-.493.216-.493.389s.195.319.466.389v.541a1.388,1.388,0,0,0-.309,2.568,63.437,63.437,0,0,0-6.623,22.636h-.444V51.15h57.862V49.663Z" fill="#fd642a"/>
    <path id="Path_1286" data-name="Path 1286" d="M140.989,1.06h-.32V9.153h.32Z" fill="#01529c"/>
    <path id="Path_1287" data-name="Path 1287" d="M141.168.8a.336.336,0,0,1-.672,0c0-.184.336-.335.336-.335S141.168.6,141.168.8Z" fill="#dad9ed"/>
    <path id="Path_1288" data-name="Path 1288" d="M149.709,6.234a3.451,3.451,0,0,0-1.138-.849,3.4,3.4,0,0,1-1.377-.487,7.3,7.3,0,0,0-1.23-.7,6.077,6.077,0,0,0,1.36-.47c.483-.27.716-.768,1.155-.946a2.113,2.113,0,0,1,.829-.146,2.366,2.366,0,0,0-1.49-.368,3.831,3.831,0,0,1-2.282-.335,2.952,2.952,0,0,0-1.815-.405,3.8,3.8,0,0,1-1.626-.189,5.55,5.55,0,0,0-1.491-.162V6.429a.93.93,0,0,1,.261.032,9.857,9.857,0,0,0,2.395.27c.769-.081,1.88-.384,2.493-.368a6.543,6.543,0,0,0,2.59.141,3.06,3.06,0,0,1,1.74-.043S149.817,6.315,149.709,6.234Z" fill="#01529c"/>
    <path id="Path_1289" data-name="Path 1289" d="M138.794,41.5s-.032-.395.244-.33c2.71.616,3.588-5.244,7.273-5.293,2.569-.038,4.276,2.546,4.184,5.293-.174,5.131-3.279,6.217-4.412,6.217-3.463,0-3.685-3.871-2.856-5.044.19,1.319,1.344,2.936,2.743,2.936,1.913,0,3.034-1.9,3.089-3.784.059-2.206-1.258-3.357-2.71-3.465-2.5-.195-2.834,4.012-5.82,4.012-1.442,0-.954,1.227-1.057.541C139.461,42.451,138.751,41.57,138.794,41.5Z" fill="#fff"/>
    <path id="Path_1290" data-name="Path 1290" d="M132.6,35.877a4.928,4.928,0,0,1,4.525-2.438,3.271,3.271,0,0,1,3.425,3.184A3.6,3.6,0,0,1,137.71,40.1c2.195.989,3.929,2.4,3.794,5.579a4.18,4.18,0,0,1-4.238,3.784c-5.777,0-7.587-6.033-6.46-9.385.13,2.006,1.594,6.6,6.108,6.6a2.244,2.244,0,0,0,2.46-2.292c-.032-3-3.9-3.379-3.826-4.287.1-1.26,3.344-1.271,3.344-2.887,0-1.308-1.084-1.622-1.886-1.622-1.2,0-2.2,1.081-2.97,1.622C132.866,38.045,132.058,36.964,132.6,35.877Z" fill="#fff"/>
    <path id="Path_1291" data-name="Path 1291" d="M138.952,28.762c-1.025,1.168-.2,4.557,3.435,5.368,2.71.605,5.376-.422,5.376-1.968a1.24,1.24,0,0,0-1.252-1.33c-1.083,0-.693,1.487-3.354,1.487a4.218,4.218,0,0,1-4.205-3.557Z" fill="#fff"/>
    <path id="Path_1292" data-name="Path 1292" d="M144.571,29.633a1.521,1.521,0,1,1-.446-1.074A1.518,1.518,0,0,1,144.571,29.633Z" fill="#fff"/>
  </g>
</svg>
